<?xml version="1.0" encoding="UTF-8" standalone="no"?>
<!-- Created with Inkscape (http://www.inkscape.org/) -->

<svg
   xmlns:dc="http://purl.org/dc/elements/1.1/"
   xmlns:cc="http://creativecommons.org/ns#"
   xmlns:rdf="http://www.w3.org/1999/02/22-rdf-syntax-ns#"
   xmlns:svg="http://www.w3.org/2000/svg"
   xmlns="http://www.w3.org/2000/svg"
   xmlns:sodipodi="http://sodipodi.sourceforge.net/DTD/sodipodi-0.dtd"
   xmlns:inkscape="http://www.inkscape.org/namespaces/inkscape"
   width="204.02499mm"
   height="207.74478mm"
   viewBox="0 0 204.02499 207.74478"
   version="1.1"
   id="svg8"
   inkscape:version="0.92.3 (2405546, 2018-03-11)"
   sodipodi:docname="Logo RGB3.svg">
  <title
     id="title1841">Monama</title>
  <defs
     id="defs2" />
  <sodipodi:namedview
     id="base"
     pagecolor="#ffffff"
     bordercolor="#666666"
     borderopacity="1.0"
     inkscape:pageopacity="0.0"
     inkscape:pageshadow="2"
     inkscape:zoom="2"
     inkscape:cx="315.83278"
     inkscape:cy="333.83853"
     inkscape:document-units="mm"
     inkscape:current-layer="layer1"
     showgrid="false"
     inkscape:window-width="3096"
     inkscape:window-height="2115"
     inkscape:window-x="-13"
     inkscape:window-y="-13"
     inkscape:window-maximized="1"
     showguides="false"
     fit-margin-top="0"
     fit-margin-left="0"
     fit-margin-right="0"
     fit-margin-bottom="0" />
  <metadata
     id="metadata5">
    <rdf:RDF>
      <cc:Work
         rdf:about="">
        <dc:format>image/svg+xml</dc:format>
        <dc:type
           rdf:resource="http://purl.org/dc/dcmitype/StillImage" />
        <dc:title>Monama</dc:title>
      </cc:Work>
    </rdf:RDF>
  </metadata>
  <g
     inkscape:label="Layer 1"
     inkscape:groupmode="layer"
     id="layer1"
     transform="translate(-3.1593752,-2.958333)">
    <path
       id="path3744"
       sodipodi:type="arc"
       sodipodi:cx="105.36874"
       sodipodi:cy="81.300003"
       sodipodi:rx="12.5"
       sodipodi:ry="12.5"
       sodipodi:start="0"
       sodipodi:end="6.2816843"
       sodipodi:open="true"
       d="M 117.86874,81.300003 A 12.5,12.5 0 0 1 105.37343,93.800002 12.5,12.5 0 0 1 92.86874,81.309384 12.5,12.5 0 0 1 105.35466,68.800011 12.5,12.5 0 0 1 117.86872,81.28124"
       style="fill:#fed700;fill-opacity:1;stroke-width:0.35100037" />
    <path
       id="path3744-9"
       sodipodi:type="arc"
       sodipodi:cx="81.946869"
       sodipodi:cy="102.60519"
       sodipodi:rx="11.5"
       sodipodi:ry="11.5"
       sodipodi:start="0"
       sodipodi:end="6.2816843"
       sodipodi:open="true"
       d="m 93.446869,102.60519 a 11.5,11.5 0 0 1 -11.495685,11.5 11.5,11.5 0 0 1 -11.504312,-11.49137 11.5,11.5 0 0 1 11.487051,-11.508626 11.5,11.5 0 0 1 11.512933,11.482726"
       style="fill:#fed700;fill-opacity:1;stroke-width:0.32292032" />
    <path
       id="path3744-9-1"
       sodipodi:type="arc"
       sodipodi:cx="61.147915"
       sodipodi:cy="124.3302"
       sodipodi:rx="11"
       sodipodi:ry="11"
       sodipodi:start="0"
       sodipodi:end="6.2816843"
       sodipodi:open="true"
       d="m 72.147915,124.3302 a 11,11 0 0 1 -10.995872,11 11,11 0 0 1 -11.004125,-10.99174 11,11 0 0 1 10.987614,-11.00825 11,11 0 0 1 11.01237,10.98348"
       style="fill:#fed700;fill-opacity:1;stroke-width:0.3088803" />
    <path
       id="path3744-9-1-6"
       sodipodi:type="arc"
       sodipodi:cx="125.30938"
       sodipodi:cy="60.565617"
       sodipodi:rx="10"
       sodipodi:ry="10"
       sodipodi:start="0"
       sodipodi:end="6.2816843"
       sodipodi:open="true"
       d="m 135.30938,60.565617 a 10,10 0 0 1 -9.99625,9.999999 10,10 0 0 1 -10.00375,-9.992494 10,10 0 0 1 9.98874,-10.007499 10,10 0 0 1 10.01125,9.984984"
       style="fill:#fed700;fill-opacity:1;stroke-width:0.28080025" />
    <path
       id="path3744-9-1-6-7"
       sodipodi:type="arc"
       sodipodi:cx="139.89062"
       sodipodi:cy="43.86771"
       sodipodi:rx="8.5"
       sodipodi:ry="8.5"
       sodipodi:start="0"
       sodipodi:end="6.2816843"
       sodipodi:open="true"
       d="m 148.39062,43.86771 a 8.5,8.5 0 0 1 -8.49681,8.5 8.5,8.5 0 0 1 -8.50318,-8.493621 8.5,8.5 0 0 1 8.49043,-8.506374 8.5,8.5 0 0 1 8.50956,8.487237"
       style="fill:#fed700;fill-opacity:1;stroke-width:0.2386802" />
    <path
       id="path3744-9-1-6-7-7"
       sodipodi:type="arc"
       sodipodi:cx="144.87299"
       sodipodi:cy="27.24375"
       sodipodi:rx="6"
       sodipodi:ry="6"
       sodipodi:start="0"
       sodipodi:end="6.2816843"
       sodipodi:open="true"
       d="m 150.87299,27.24375 a 6,6 0 0 1 -5.99775,5.999999 6,6 0 0 1 -6.00225,-5.995496 6,6 0 0 1 5.99324,-6.0045 6,6 0 0 1 6.00675,5.990991"
       style="fill:#fed700;fill-opacity:1;stroke-width:0.16848014" />
    <path
       id="path3744-9-1-6-7-7-7"
       sodipodi:type="arc"
       sodipodi:cx="142.0948"
       sodipodi:cy="14.411457"
       sodipodi:rx="3.5"
       sodipodi:ry="3.5"
       sodipodi:start="0"
       sodipodi:end="6.2816843"
       sodipodi:open="true"
       d="m 145.5948,14.411457 a 3.5,3.5 0 0 1 -3.49868,3.5 3.5,3.5 0 0 1 -3.50132,-3.497373 3.5,3.5 0 0 1 3.49606,-3.502625 3.5,3.5 0 0 1 3.50394,3.494745"
       style="fill:#fed700;fill-opacity:1;stroke-width:0.09828009" />
    <path
       id="path3744-9-1-5"
       sodipodi:type="arc"
       sodipodi:cx="46.389576"
       sodipodi:cy="145.57088"
       sodipodi:rx="9"
       sodipodi:ry="9"
       sodipodi:start="0"
       sodipodi:end="6.2816843"
       sodipodi:open="true"
       d="m 55.389576,145.57088 a 9,9 0 0 1 -8.996623,9 9,9 0 0 1 -9.003375,-8.99325 9,9 0 0 1 8.989866,-9.00675 9,9 0 0 1 9.010122,8.98649"
       style="fill:#fed700;fill-opacity:1;stroke-width:0.25272024" />
    <path
       id="path3744-9-1-5-1"
       sodipodi:type="arc"
       sodipodi:cx="40.230209"
       sodipodi:cy="164.2979"
       sodipodi:rx="6.5"
       sodipodi:ry="6.5"
       sodipodi:start="0"
       sodipodi:end="6.2816843"
       sodipodi:open="true"
       d="m 46.730209,164.2979 a 6.5,6.5 0 0 1 -6.497561,6.5 6.5,6.5 0 0 1 -6.502437,-6.49512 6.5,6.5 0 0 1 6.492681,-6.50488 6.5,6.5 0 0 1 6.50731,6.49024"
       style="fill:#fed700;fill-opacity:1;stroke-width:0.18252017" />
    <path
       id="path3744-9-1-5-1-5"
       sodipodi:type="arc"
       sodipodi:cx="42.053116"
       sodipodi:cy="179.14378"
       sodipodi:rx="4.5"
       sodipodi:ry="4.5"
       sodipodi:start="0"
       sodipodi:end="6.2816843"
       sodipodi:open="true"
       d="m 46.553116,179.14378 a 4.5,4.5 0 0 1 -4.498312,4.5 4.5,4.5 0 0 1 -4.501687,-4.49662 4.5,4.5 0 0 1 4.494933,-4.50337 4.5,4.5 0 0 1 4.505061,4.49324"
       style="fill:#fed700;fill-opacity:1;stroke-width:0.12636012" />
    <path
       id="path3744-9-1-5-1-5-5"
       sodipodi:type="arc"
       sodipodi:cx="46.815617"
       sodipodi:cy="189.59483"
       sodipodi:rx="2"
       sodipodi:ry="2"
       sodipodi:start="0"
       sodipodi:end="6.2816843"
       sodipodi:open="true"
       d="m 48.815617,189.59483 a 2,2 0 0 1 -1.99925,2 2,2 0 0 1 -2.00075,-1.9985 2,2 0 0 1 1.997748,-2.0015 2,2 0 0 1 2.002249,1.997"
       style="fill:#fed700;fill-opacity:1;stroke-width:0.05616005" />
    <path
       id="path3744-9-1-6-6"
       sodipodi:type="arc"
       sodipodi:cx="148.29897"
       sodipodi:cy="81.629166"
       sodipodi:rx="10"
       sodipodi:ry="10"
       sodipodi:start="0"
       sodipodi:end="6.2816843"
       sodipodi:open="true"
       d="m 158.29897,81.629166 a 10,10 0 0 1 -9.99625,9.999999 10,10 0 0 1 -10.00375,-9.992494 10,10 0 0 1 9.98874,-10.007499 10,10 0 0 1 10.01124,9.984984"
       style="fill:#c8d400;fill-opacity:1;stroke-width:0.28080025" />
    <path
       id="path3744-9-1-6-6-2"
       sodipodi:type="arc"
       sodipodi:cx="128.76459"
       sodipodi:cy="102.22188"
       sodipodi:rx="11.5"
       sodipodi:ry="11.5"
       sodipodi:start="0"
       sodipodi:end="6.2816843"
       sodipodi:open="true"
       d="m 140.26459,102.22188 a 11.5,11.5 0 0 1 -11.49569,11.5 11.5,11.5 0 0 1 -11.50431,-11.49137 11.5,11.5 0 0 1 11.48705,-11.508625 11.5,11.5 0 0 1 11.51293,11.482735"
       style="fill:#c8d400;fill-opacity:1;stroke-width:0.32292029" />
    <path
       id="path3744-9-1-6-6-2-3"
       sodipodi:type="arc"
       sodipodi:cx="105.06874"
       sodipodi:cy="125.12394"
       sodipodi:rx="11"
       sodipodi:ry="11"
       sodipodi:start="0"
       sodipodi:end="6.2816843"
       sodipodi:open="true"
       d="m 116.06874,125.12394 a 11,11 0 0 1 -10.99587,11 11,11 0 0 1 -11.004126,-10.99174 11,11 0 0 1 10.987616,-11.00825 11,11 0 0 1 11.01237,10.98348"
       style="fill:#c8d400;fill-opacity:1;stroke-width:0.30888027" />
    <path
       id="path3744-9-1-6-6-22"
       sodipodi:type="arc"
       sodipodi:cx="160.85114"
       sodipodi:cy="61.007294"
       sodipodi:rx="8"
       sodipodi:ry="8"
       sodipodi:start="0"
       sodipodi:end="6.2816843"
       sodipodi:open="true"
       d="m 168.85114,61.007294 a 8,8 0 0 1 -7.997,7.999999 8,8 0 0 1 -8.003,-7.993995 8,8 0 0 1 7.99099,-8.005999 8,8 0 0 1 8.009,7.987987"
       style="fill:#c8d400;fill-opacity:1;stroke-width:0.22464021" />
    <path
       id="path3744-9-1-6-6-22-5"
       sodipodi:type="arc"
       sodipodi:cx="165.87811"
       sodipodi:cy="41.560417"
       sodipodi:rx="6"
       sodipodi:ry="6"
       sodipodi:start="0"
       sodipodi:end="6.2816843"
       sodipodi:open="true"
       d="m 171.87811,41.560417 a 6,6 0 0 1 -5.99775,6 6,6 0 0 1 -6.00225,-5.995497 6,6 0 0 1 5.99325,-6.004499 6,6 0 0 1 6.00675,5.99099"
       style="fill:#c8d400;fill-opacity:1;stroke-width:0.16848016" />
    <path
       id="path3744-9-1-6-6-22-5-3"
       sodipodi:type="arc"
       sodipodi:cx="162.86465"
       sodipodi:cy="28.434372"
       sodipodi:rx="3.5"
       sodipodi:ry="3.5"
       sodipodi:start="0"
       sodipodi:end="6.2816843"
       sodipodi:open="true"
       d="m 166.36465,28.434372 a 3.5,3.5 0 0 1 -3.49868,3.5 3.5,3.5 0 0 1 -3.50131,-3.497373 3.5,3.5 0 0 1 3.49605,-3.502625 3.5,3.5 0 0 1 3.50394,3.494744"
       style="fill:#c8d400;fill-opacity:1;stroke-width:0.0982801" />
    <path
       id="path3744-9-1-6-6-22-5-3-7"
       sodipodi:type="arc"
       sodipodi:cx="157.91158"
       sodipodi:cy="20.158331"
       sodipodi:rx="2"
       sodipodi:ry="2"
       sodipodi:start="0"
       sodipodi:end="6.2816843"
       sodipodi:open="true"
       d="m 159.91158,20.158331 a 2,2 0 0 1 -1.99925,2 2,2 0 0 1 -2.00075,-1.998499 2,2 0 0 1 1.99774,-2.0015 2,2 0 0 1 2.00225,1.996997"
       style="fill:#c8d400;fill-opacity:1;stroke-width:0.05616005" />
    <path
       id="path3744-9-1-6-6-2-3-5"
       sodipodi:type="arc"
       sodipodi:cx="83.372917"
       sodipodi:cy="145.49689"
       sodipodi:rx="10.5"
       sodipodi:ry="10.5"
       sodipodi:start="0"
       sodipodi:end="6.2816843"
       sodipodi:open="true"
       d="m 93.872917,145.49689 a 10.5,10.5 0 0 1 -10.49606,10.5 10.5,10.5 0 0 1 -10.503937,-10.49212 10.5,10.5 0 0 1 10.488177,-10.50788 10.5,10.5 0 0 1 10.511808,10.48424"
       style="fill:#c8d400;fill-opacity:1;stroke-width:0.29484028" />
    <path
       id="path3744-9-1-5-0"
       sodipodi:type="arc"
       sodipodi:cx="68.027084"
       sodipodi:cy="163.88542"
       sodipodi:rx="8.5"
       sodipodi:ry="8.5"
       sodipodi:start="0"
       sodipodi:end="6.2816843"
       sodipodi:open="true"
       d="m 76.527084,163.88542 a 8.5,8.5 0 0 1 -8.49681,8.5 8.5,8.5 0 0 1 -8.503187,-8.49362 8.5,8.5 0 0 1 8.490428,-8.50637 8.5,8.5 0 0 1 8.50956,8.48723"
       style="fill:#c8d400;fill-opacity:1;stroke-width:0.23868023" />
    <path
       id="path3744-9-1-5-0-1"
       sodipodi:type="arc"
       sodipodi:cx="61.926033"
       sodipodi:cy="181.36359"
       sodipodi:rx="6"
       sodipodi:ry="6"
       sodipodi:start="0"
       sodipodi:end="6.2816843"
       sodipodi:open="true"
       d="m 67.926033,181.36359 a 6,6 0 0 1 -5.997748,6 6,6 0 0 1 -6.00225,-5.9955 6,6 0 0 1 5.993243,-6.0045 6,6 0 0 1 6.006748,5.99099"
       style="fill:#c8d400;fill-opacity:1;stroke-width:0.16848017" />
    <path
       id="path3744-9-1-5-0-1-4"
       sodipodi:type="arc"
       sodipodi:cx="63.278126"
       sodipodi:cy="193.10834"
       sodipodi:rx="3"
       sodipodi:ry="3"
       sodipodi:start="0"
       sodipodi:end="6.2816843"
       sodipodi:open="true"
       d="m 66.278126,193.10834 a 3,3 0 0 1 -2.998874,3 3,3 0 0 1 -3.001125,-2.99775 3,3 0 0 1 2.996621,-3.00225 3,3 0 0 1 3.003374,2.99549"
       style="fill:#c8d400;fill-opacity:1;stroke-width:0.08424009" />
    <path
       id="path3744-9-1-5-0-1-4-8"
       sodipodi:type="arc"
       sodipodi:cx="68.717712"
       sodipodi:cy="202.35313"
       sodipodi:rx="2"
       sodipodi:ry="2"
       sodipodi:start="0"
       sodipodi:end="6.2816843"
       sodipodi:open="true"
       d="m 70.717712,202.35313 a 2,2 0 0 1 -1.999249,2 2,2 0 0 1 -2.00075,-1.99849 2,2 0 0 1 1.997748,-2.0015 2,2 0 0 1 2.002249,1.99699"
       style="fill:#c8d400;fill-opacity:1;stroke-width:0.05616006" />
    <path
       id="path3744-9-1-6-6-22-5-3-7-7"
       sodipodi:type="arc"
       sodipodi:cx="180.04897"
       sodipodi:cy="39.428123"
       sodipodi:rx="2"
       sodipodi:ry="2"
       sodipodi:start="0"
       sodipodi:end="6.2816843"
       sodipodi:open="true"
       d="m 182.04897,39.428123 a 2,2 0 0 1 -1.99925,2 2,2 0 0 1 -2.00075,-1.998499 2,2 0 0 1 1.99774,-2.001499 2,2 0 0 1 2.00225,1.996996"
       style="fill:#93c372;fill-opacity:1;stroke-width:0.05616005" />
    <path
       id="path3744-9-1-6-6-22-5-3-74"
       sodipodi:type="arc"
       sodipodi:cx="183.35625"
       sodipodi:cy="49.614582"
       sodipodi:rx="3.5"
       sodipodi:ry="3.5"
       sodipodi:start="0"
       sodipodi:end="6.2816843"
       sodipodi:open="true"
       d="m 186.85625,49.614582 a 3.5,3.5 0 0 1 -3.49869,3.5 3.5,3.5 0 0 1 -3.50131,-3.497373 3.5,3.5 0 0 1 3.49606,-3.502625 3.5,3.5 0 0 1 3.50393,3.494745"
       style="fill:#93c372;fill-opacity:1;stroke-width:0.0982801" />
    <path
       id="path3744-9-1-6-7-7-7-3"
       sodipodi:type="arc"
       sodipodi:cx="184.19481"
       sodipodi:cy="62.005207"
       sodipodi:rx="5"
       sodipodi:ry="5"
       sodipodi:start="0"
       sodipodi:end="6.2816843"
       sodipodi:open="true"
       d="m 189.19481,62.005207 a 5,5 0 0 1 -4.99812,5 5,5 0 0 1 -5.00188,-4.996247 5,5 0 0 1 4.99437,-5.00375 5,5 0 0 1 5.00562,4.992492"
       style="fill:#93c372;fill-opacity:1;stroke-width:0.14040013" />
    <path
       id="path3744-9-1-6-6-22-0"
       sodipodi:type="arc"
       sodipodi:cx="181.26874"
       sodipodi:cy="80.938538"
       sodipodi:rx="7.5"
       sodipodi:ry="7.5"
       sodipodi:start="0"
       sodipodi:end="6.2816843"
       sodipodi:open="true"
       d="m 188.76874,80.938538 a 7.5,7.5 0 0 1 -7.49719,7.499999 7.5,7.5 0 0 1 -7.50281,-7.494371 7.5,7.5 0 0 1 7.49155,-7.505624 7.5,7.5 0 0 1 7.50844,7.488738"
       style="fill:#93c372;fill-opacity:1;stroke-width:0.2106002" />
    <path
       id="path3744-9-1-6-6-4"
       sodipodi:type="arc"
       sodipodi:cx="167.08438"
       sodipodi:cy="103.325"
       sodipodi:rx="10"
       sodipodi:ry="10"
       sodipodi:start="0"
       sodipodi:end="6.2816843"
       sodipodi:open="true"
       d="m 177.08438,103.325 a 10,10 0 0 1 -9.99625,10 10,10 0 0 1 -10.00375,-9.9925 10,10 0 0 1 9.98874,-10.007497 10,10 0 0 1 10.01125,9.984987"
       style="fill:#93c372;fill-opacity:1;stroke-width:0.28080025" />
    <path
       id="path3744-9-1-6-6-2-8"
       sodipodi:type="arc"
       sodipodi:cx="148.82812"
       sodipodi:cy="124.62396"
       sodipodi:rx="11.500001"
       sodipodi:ry="11.500001"
       sodipodi:start="0"
       sodipodi:end="6.2816843"
       sodipodi:open="true"
       d="m 160.32813,124.62396 a 11.500001,11.500001 0 0 1 -11.49569,11.5 11.500001,11.500001 0 0 1 -11.50431,-11.49137 11.500001,11.500001 0 0 1 11.48705,-11.50862 11.500001,11.500001 0 0 1 11.51293,11.48273"
       style="fill:#93c372;fill-opacity:1;stroke-width:0.32292029" />
    <path
       id="path3744-9-1-6-6-2-3-9"
       sodipodi:type="arc"
       sodipodi:cx="125.83853"
       sodipodi:cy="144.43854"
       sodipodi:rx="10.5"
       sodipodi:ry="10.5"
       sodipodi:start="0"
       sodipodi:end="6.2816843"
       sodipodi:open="true"
       d="m 136.33853,144.43854 a 10.5,10.5 0 0 1 -10.49606,10.5 10.5,10.5 0 0 1 -10.50394,-10.49212 10.5,10.5 0 0 1 10.48818,-10.50788 10.5,10.5 0 0 1 10.51181,10.48424"
       style="fill:#93c372;fill-opacity:1;stroke-width:0.29484025" />
    <path
       id="path3744-9-1-6-6-2-3-5-3"
       sodipodi:type="arc"
       sodipodi:cx="104.56874"
       sodipodi:cy="163.98856"
       sodipodi:rx="9.5"
       sodipodi:ry="9.5"
       sodipodi:start="0"
       sodipodi:end="6.2816843"
       sodipodi:open="true"
       d="m 114.06874,163.98856 a 9.5,9.5 0 0 1 -9.49643,9.5 9.5,9.5 0 0 1 -9.503566,-9.49287 9.5,9.5 0 0 1 9.489306,-9.50713 9.5,9.5 0 0 1 9.51068,9.48574"
       style="fill:#93c372;fill-opacity:1;stroke-width:0.26676026" />
    <path
       id="path3744-9-1-5-1-2"
       sodipodi:type="arc"
       sodipodi:cx="88.57708"
       sodipodi:cy="179.45103"
       sodipodi:rx="7.5"
       sodipodi:ry="7.5"
       sodipodi:start="0"
       sodipodi:end="6.2816843"
       sodipodi:open="true"
       d="m 96.07708,179.45103 a 7.5,7.5 0 0 1 -7.497186,7.5 7.5,7.5 0 0 1 -7.502812,-7.49437 7.5,7.5 0 0 1 7.491555,-7.50562 7.5,7.5 0 0 1 7.508434,7.48874"
       style="fill:#93c372;fill-opacity:1;stroke-width:0.21060018" />
    <path
       id="path3744-9-1-5-1-5-6"
       sodipodi:type="arc"
       sodipodi:cx="82.814583"
       sodipodi:cy="194.07707"
       sodipodi:rx="4.5"
       sodipodi:ry="4.5"
       sodipodi:start="0"
       sodipodi:end="6.2816843"
       sodipodi:open="true"
       d="m 87.314583,194.07707 a 4.5,4.5 0 0 1 -4.498312,4.5 4.5,4.5 0 0 1 -4.501687,-4.49662 4.5,4.5 0 0 1 4.494933,-4.50338 4.5,4.5 0 0 1 4.505061,4.49325"
       style="fill:#93c372;fill-opacity:1;stroke-width:0.12636012" />
    <path
       id="path3744-9-1-5-0-1-4-8-1"
       sodipodi:type="arc"
       sodipodi:cx="85.063545"
       sodipodi:cy="205.85104"
       sodipodi:rx="2"
       sodipodi:ry="2"
       sodipodi:start="0"
       sodipodi:end="6.2816843"
       sodipodi:open="true"
       d="m 87.063545,205.85104 a 2,2 0 0 1 -1.999249,2 2,2 0 0 1 -2.00075,-1.9985 2,2 0 0 1 1.997748,-2.0015 2,2 0 0 1 2.002249,1.997"
       style="fill:#93c372;fill-opacity:1;stroke-width:0.05616006" />
    <path
       id="path3744-9-1-6-6-22-5-3-7-7-2"
       sodipodi:type="arc"
       sodipodi:cx="195.98228"
       sodipodi:cy="63.182289"
       sodipodi:rx="1"
       sodipodi:ry="1"
       sodipodi:start="0"
       sodipodi:end="6.2816843"
       sodipodi:open="true"
       d="m 196.98228,63.182289 a 1,1 0 0 1 -0.99962,1 1,1 0 0 1 -1.00038,-0.999249 1,1 0 0 1 0.99888,-1.00075 1,1 0 0 1 1.00112,0.998498"
       style="fill:#34b2bb;fill-opacity:1;stroke-width:0.02808003" />
    <path
       id="path3744-9-1-6-6-22-5-3-7-7-7"
       sodipodi:type="arc"
       sodipodi:cx="198.30521"
       sodipodi:cy="72.765625"
       sodipodi:rx="2"
       sodipodi:ry="2"
       sodipodi:start="0"
       sodipodi:end="6.2816843"
       sodipodi:open="true"
       d="m 200.30521,72.765625 a 2,2 0 0 1 -1.99925,2 2,2 0 0 1 -2.00075,-1.998499 2,2 0 0 1 1.99774,-2.0015 2,2 0 0 1 2.00225,1.996997"
       style="fill:#34b2bb;fill-opacity:1;stroke-width:0.05616005" />
    <path
       id="path3744-9-1-6-7-7-7-8"
       sodipodi:type="arc"
       sodipodi:cx="200.26042"
       sodipodi:cy="85.494789"
       sodipodi:rx="4"
       sodipodi:ry="4"
       sodipodi:start="0"
       sodipodi:end="6.2816843"
       sodipodi:open="true"
       d="m 204.26042,85.494789 a 4,4 0 0 1 -3.9985,4 4,4 0 0 1 -4.0015,-3.996998 4,4 0 0 1 3.9955,-4.002999 4,4 0 0 1 4.0045,3.993993"
       style="fill:#34b2bb;fill-opacity:1;stroke-width:0.1123201" />
    <path
       id="path3744-9-1-6-7-7-7-3-1"
       sodipodi:type="arc"
       sodipodi:cx="196.23335"
       sodipodi:cy="103.54478"
       sodipodi:rx="6.5"
       sodipodi:ry="6.5"
       sodipodi:start="0"
       sodipodi:end="6.2816843"
       sodipodi:open="true"
       d="m 202.73335,103.54478 a 6.5,6.5 0 0 1 -6.49756,6.5 6.5,6.5 0 0 1 -6.50244,-6.49512 6.5,6.5 0 0 1 6.49269,-6.504879 6.5,6.5 0 0 1 6.50731,6.490239"
       style="fill:#34b2bb;fill-opacity:1;stroke-width:0.18252017" />
    <path
       id="path3744-9-1-6-7-7-8"
       sodipodi:type="arc"
       sodipodi:cx="181.68127"
       sodipodi:cy="124.44688"
       sodipodi:rx="7.5"
       sodipodi:ry="7.5"
       sodipodi:start="0"
       sodipodi:end="6.2816843"
       sodipodi:open="true"
       d="m 189.18127,124.44688 a 7.5,7.5 0 0 1 -7.49718,7.5 7.5,7.5 0 0 1 -7.50281,-7.49437 7.5,7.5 0 0 1 7.49155,-7.50563 7.5,7.5 0 0 1 7.50844,7.48874"
       style="fill:#34b2bb;fill-opacity:1;stroke-width:0.2106002" />
    <path
       id="path3744-9-1-6-7-7-8-4"
       sodipodi:type="arc"
       sodipodi:cx="162.95418"
       sodipodi:cy="145.15833"
       sodipodi:rx="8"
       sodipodi:ry="8"
       sodipodi:start="0"
       sodipodi:end="6.2816843"
       sodipodi:open="true"
       d="m 170.95418,145.15833 a 8,8 0 0 1 -7.997,7.99999 8,8 0 0 1 -8.003,-7.99399 8,8 0 0 1 7.99099,-8.006 8,8 0 0 1 8.009,7.98799"
       style="fill:#34b2bb;fill-opacity:1;stroke-width:0.22464021" />
    <path
       id="path3744-9-1-6-7-7-7-3-8"
       sodipodi:type="arc"
       sodipodi:cx="141.30315"
       sodipodi:cy="163.23749"
       sodipodi:rx="7"
       sodipodi:ry="7"
       sodipodi:start="0"
       sodipodi:end="6.2816843"
       sodipodi:open="true"
       d="m 148.30315,163.23749 a 7,7 0 0 1 -6.99738,7 7,7 0 0 1 -7.00262,-6.99475 7,7 0 0 1 6.99212,-7.00525 7,7 0 0 1 7.00787,6.98949"
       style="fill:#34b2bb;fill-opacity:1;stroke-width:0.19656017" />
    <path
       id="path3744-9-1-6-7-7-7-3-8-9"
       sodipodi:type="arc"
       sodipodi:cx="120.81145"
       sodipodi:cy="179.49583"
       sodipodi:rx="6.5"
       sodipodi:ry="6.5"
       sodipodi:start="0"
       sodipodi:end="6.2816843"
       sodipodi:open="true"
       d="m 127.31145,179.49583 a 6.5,6.5 0 0 1 -6.49756,6.5 6.5,6.5 0 0 1 -6.50244,-6.49512 6.5,6.5 0 0 1 6.49268,-6.50487 6.5,6.5 0 0 1 6.50731,6.49024"
       style="fill:#34b2bb;fill-opacity:1;stroke-width:0.18252017" />
    <path
       id="path3744-9-1-5-1-5-6-1"
       sodipodi:type="arc"
       sodipodi:cx="104.95208"
       sodipodi:cy="192.04791"
       sodipodi:rx="6"
       sodipodi:ry="6"
       sodipodi:start="0"
       sodipodi:end="6.2816843"
       sodipodi:open="true"
       d="m 110.95208,192.04791 a 6,6 0 0 1 -5.99775,6 6,6 0 0 1 -6.002249,-5.99549 6,6 0 0 1 5.993249,-6.0045 6,6 0 0 1 6.00674,5.99099"
       style="fill:#34b2bb;fill-opacity:1;stroke-width:0.16848016" />
    <path
       id="path3744-9-1-5-1-5-6-2"
       sodipodi:type="arc"
       sodipodi:cx="97.159378"
       sodipodi:cy="204.1021"
       sodipodi:rx="4"
       sodipodi:ry="4"
       sodipodi:start="0"
       sodipodi:end="6.2816843"
       sodipodi:open="true"
       d="m 101.15938,204.1021 a 4,4 0 0 1 -3.998501,4 4,4 0 0 1 -4.0015,-3.997 4,4 0 0 1 3.995496,-4.003 4,4 0 0 1 4.004495,3.99399"
       style="fill:#34b2bb;fill-opacity:1;stroke-width:0.1123201" />
    <path
       id="path3744-9-1-6-6-22-5-3-7-7-7-2"
       sodipodi:type="arc"
       sodipodi:cx="205.18437"
       sodipodi:cy="112.05624"
       sodipodi:rx="2"
       sodipodi:ry="2"
       sodipodi:start="0"
       sodipodi:end="6.2816843"
       sodipodi:open="true"
       d="m 207.18437,112.05624 a 2,2 0 0 1 -1.99925,2 2,2 0 0 1 -2.00075,-1.9985 2,2 0 0 1 1.99775,-2.0015 2,2 0 0 1 2.00225,1.99699"
       style="fill:#0092d6;fill-opacity:1;stroke-width:0.05616005" />
    <path
       id="path3744-9-1-6-7-7-7-0"
       sodipodi:type="arc"
       sodipodi:cx="200.52501"
       sodipodi:cy="123.99167"
       sodipodi:rx="4"
       sodipodi:ry="4"
       sodipodi:start="0"
       sodipodi:end="6.2816843"
       sodipodi:open="true"
       d="m 204.52501,123.99167 a 4,4 0 0 1 -3.9985,4 4,4 0 0 1 -4.0015,-3.997 4,4 0 0 1 3.9955,-4.003 4,4 0 0 1 4.00449,3.99399"
       style="fill:#0092d6;fill-opacity:1;stroke-width:0.1123201" />
    <path
       id="path3744-9-1-6-7-7-7-3-19"
       sodipodi:type="arc"
       sodipodi:cx="188.72189"
       sodipodi:cy="143.73227"
       sodipodi:rx="6"
       sodipodi:ry="6"
       sodipodi:start="0"
       sodipodi:end="6.2816843"
       sodipodi:open="true"
       d="m 194.72189,143.73227 a 6,6 0 0 1 -5.99775,6 6,6 0 0 1 -6.00224,-5.9955 6,6 0 0 1 5.99324,-6.0045 6,6 0 0 1 6.00675,5.99099"
       style="fill:#0092d6;fill-opacity:1;stroke-width:0.16848016" />
    <path
       id="path3744-9-1-5-1-5-6-17"
       sodipodi:type="arc"
       sodipodi:cx="169.27501"
       sodipodi:cy="163.44374"
       sodipodi:rx="5.5"
       sodipodi:ry="5.5"
       sodipodi:start="0"
       sodipodi:end="6.2816843"
       sodipodi:open="true"
       d="m 174.77501,163.44374 a 5.5,5.5 0 0 1 -5.49794,5.5 5.5,5.5 0 0 1 -5.50206,-5.49587 5.5,5.5 0 0 1 5.49381,-5.50413 5.5,5.5 0 0 1 5.50618,5.49175"
       style="fill:#0092d6;fill-opacity:1;stroke-width:0.15444015" />
    <path
       id="path3744-9-1-5-1-5-6-17-9"
       sodipodi:type="arc"
       sodipodi:cx="147.90208"
       sodipodi:cy="179.12811"
       sodipodi:rx="5.5"
       sodipodi:ry="5.5"
       sodipodi:start="0"
       sodipodi:end="6.2816843"
       sodipodi:open="true"
       d="m 153.40208,179.12811 a 5.5,5.5 0 0 1 -5.49793,5.5 5.5,5.5 0 0 1 -5.50206,-5.49587 5.5,5.5 0 0 1 5.4938,-5.50412 5.5,5.5 0 0 1 5.50619,5.49174"
       style="fill:#0092d6;fill-opacity:1;stroke-width:0.15444015" />
    <path
       id="path3744-9-1-5-1-5-6-17-9-6"
       sodipodi:type="arc"
       sodipodi:cx="127.32293"
       sodipodi:cy="192.56355"
       sodipodi:rx="4.5"
       sodipodi:ry="4.5"
       sodipodi:start="0"
       sodipodi:end="6.2816843"
       sodipodi:open="true"
       d="m 131.82293,192.56355 a 4.5,4.5 0 0 1 -4.49831,4.5 4.5,4.5 0 0 1 -4.50169,-4.49662 4.5,4.5 0 0 1 4.49493,-4.50337 4.5,4.5 0 0 1 4.50506,4.49324"
       style="fill:#0092d6;fill-opacity:1;stroke-width:0.12636012" />
    <path
       id="path3744-9-1-5-0-1-4-5"
       sodipodi:type="arc"
       sodipodi:cx="110.83125"
       sodipodi:cy="207.20311"
       sodipodi:rx="3.5"
       sodipodi:ry="3.5"
       sodipodi:start="0"
       sodipodi:end="6.2816843"
       sodipodi:open="true"
       d="m 114.33125,207.20311 a 3.5,3.5 0 0 1 -3.49868,3.5 3.5,3.5 0 0 1 -3.50132,-3.49737 3.5,3.5 0 0 1 3.49606,-3.50263 3.5,3.5 0 0 1 3.50394,3.49475"
       style="fill:#0092d6;fill-opacity:1;stroke-width:0.0982801" />
    <path
       id="path3744-9-1-6-6-22-5-3-7-7-2-8"
       sodipodi:type="arc"
       sodipodi:cx="200.92188"
       sodipodi:cy="139.33749"
       sodipodi:rx="1.5"
       sodipodi:ry="1.5"
       sodipodi:start="0"
       sodipodi:end="6.2816843"
       sodipodi:open="true"
       d="m 202.42187,139.33749 a 1.5,1.5 0 0 1 -1.49943,1.5 1.5,1.5 0 0 1 -1.50056,-1.49887 1.5,1.5 0 0 1 1.49831,-1.50113 1.5,1.5 0 0 1 1.50168,1.49775"
       style="fill:#0066b2;fill-opacity:1;stroke-width:0.04212004" />
    <path
       id="path3744-9-1-6-6-22-5-3-7-7-7-2-2"
       sodipodi:type="arc"
       sodipodi:cx="190.17711"
       sodipodi:cy="158.81351"
       sodipodi:rx="3"
       sodipodi:ry="3"
       sodipodi:start="0"
       sodipodi:end="6.2816843"
       sodipodi:open="true"
       d="m 193.17711,158.81351 a 3,3 0 0 1 -2.99888,3 3,3 0 0 1 -3.00112,-2.99775 3,3 0 0 1 2.99662,-3.00225 3,3 0 0 1 3.00338,2.99549"
       style="fill:#0066b2;fill-opacity:1;stroke-width:0.08424008" />
    <path
       id="path3744-9-1-5-0-1-4-5-2"
       sodipodi:type="arc"
       sodipodi:cx="172.08231"
       sodipodi:cy="179.02499"
       sodipodi:rx="4"
       sodipodi:ry="4"
       sodipodi:start="0"
       sodipodi:end="6.2816843"
       sodipodi:open="true"
       d="m 176.08231,179.02499 a 4,4 0 0 1 -3.9985,4 4,4 0 0 1 -4.0015,-3.99699 4,4 0 0 1 3.99549,-4.003 4,4 0 0 1 4.0045,3.99399"
       style="fill:#0066b2;fill-opacity:1;stroke-width:0.1123201" />
    <path
       id="path3744-9-1-5-0-1-4-5-2-8"
       sodipodi:type="arc"
       sodipodi:cx="149.0927"
       sodipodi:cy="194.73854"
       sodipodi:rx="4"
       sodipodi:ry="4"
       sodipodi:start="0"
       sodipodi:end="6.2816843"
       sodipodi:open="true"
       d="m 153.0927,194.73854 a 4,4 0 0 1 -3.9985,4 4,4 0 0 1 -4.0015,-3.997 4,4 0 0 1 3.99549,-4.003 4,4 0 0 1 4.0045,3.994"
       style="fill:#0066b2;fill-opacity:1;stroke-width:0.1123201" />
    <path
       id="path3744-9-1-6-6-22-5-3-7-7-7-2-2-4"
       sodipodi:type="arc"
       sodipodi:cx="129.64583"
       sodipodi:cy="204.13126"
       sodipodi:rx="3"
       sodipodi:ry="3"
       sodipodi:start="0"
       sodipodi:end="6.2816843"
       sodipodi:open="true"
       d="m 132.64583,204.13126 a 3,3 0 0 1 -2.99888,3 3,3 0 0 1 -3.00112,-2.99775 3,3 0 0 1 2.99662,-3.00225 3,3 0 0 1 3.00337,2.99549"
       style="fill:#0066b2;fill-opacity:1;stroke-width:0.08424009" />
    <path
       id="path3744-9-1-6-7-7-7-4"
       sodipodi:type="arc"
       sodipodi:cx="23.944786"
       sodipodi:cy="160.47501"
       sodipodi:rx="3.5"
       sodipodi:ry="3.5"
       sodipodi:start="0"
       sodipodi:end="6.2816843"
       sodipodi:open="true"
       d="m 27.444786,160.47501 a 3.5,3.5 0 0 1 -3.498687,3.5 3.5,3.5 0 0 1 -3.501312,-3.49738 3.5,3.5 0 0 1 3.496059,-3.50262 3.5,3.5 0 0 1 3.503936,3.49474"
       style="fill:#f29700;fill-opacity:1;stroke-width:0.09828009" />
    <path
       id="path3744-9-1-5-1-5-6-17-9-6-7"
       sodipodi:type="arc"
       sodipodi:cx="10.583327"
       sodipodi:cy="124.09479"
       sodipodi:rx="4.5"
       sodipodi:ry="4.5"
       sodipodi:start="0"
       sodipodi:end="6.2816843"
       sodipodi:open="true"
       d="m 15.083327,124.09479 a 4.5,4.5 0 0 1 -4.498311,4.5 4.5,4.5 0 0 1 -4.5016874,-4.49663 4.5,4.5 0 0 1 4.4949324,-4.50337 4.5,4.5 0 0 1 4.505061,4.49324"
       style="fill:#e43f03;fill-opacity:1;stroke-width:0.12636012" />
    <path
       id="path3744-9-1-5-1-5-6-17-9-6-6"
       sodipodi:type="arc"
       sodipodi:cx="10.847918"
       sodipodi:cy="81.099991"
       sodipodi:rx="4.5"
       sodipodi:ry="4.5"
       sodipodi:start="0"
       sodipodi:end="6.2816843"
       sodipodi:open="true"
       d="m 15.347918,81.099991 a 4.5,4.5 0 0 1 -4.498312,4.5 4.5,4.5 0 0 1 -4.5016872,-4.496623 4.5,4.5 0 0 1 4.4949332,-4.503374 4.5,4.5 0 0 1 4.50506,4.493242"
       style="fill:#c10080;fill-opacity:1;stroke-width:0.12636012" />
    <path
       id="path3744-9-1-5-1-5-6-17-9-6-8"
       sodipodi:type="arc"
       sodipodi:cx="83.049995"
       sodipodi:cy="16.570831"
       sodipodi:rx="5"
       sodipodi:ry="5"
       sodipodi:start="0"
       sodipodi:end="6.2816843"
       sodipodi:open="true"
       d="m 88.049995,16.570831 a 5,5 0 0 1 -4.998123,5 5,5 0 0 1 -5.001875,-4.996247 5,5 0 0 1 4.99437,-5.00375 5,5 0 0 1 5.005623,4.992492"
       style="fill:#c10080;fill-opacity:1;stroke-width:0.14040013" />
    <path
       id="path3744-9-1-5-1-5-6-17-9-6-8-5"
       sodipodi:type="arc"
       sodipodi:cx="104.74583"
       sodipodi:cy="16.967709"
       sodipodi:rx="5.5"
       sodipodi:ry="5.5"
       sodipodi:start="0"
       sodipodi:end="6.2816843"
       sodipodi:open="true"
       d="m 110.24583,16.967709 a 5.5,5.5 0 0 1 -5.49794,5.499999 5.5,5.5 0 0 1 -5.502062,-5.495872 5.5,5.5 0 0 1 5.493812,-5.504124 5.5,5.5 0 0 1 5.50618,5.491741"
       style="fill:#e43f03;fill-opacity:1;stroke-width:0.15444013" />
    <path
       id="path3744-9-1-6-6-22-5-3-6"
       sodipodi:type="arc"
       sodipodi:cx="126.57396"
       sodipodi:cy="18.952084"
       sodipodi:rx="4"
       sodipodi:ry="4"
       sodipodi:start="0"
       sodipodi:end="6.2816843"
       sodipodi:open="true"
       d="m 130.57396,18.952084 a 4,4 0 0 1 -3.9985,3.999999 4,4 0 0 1 -4.0015,-3.996997 4,4 0 0 1 3.9955,-4.003 4,4 0 0 1 4.00449,3.993994"
       style="fill:#f29700;fill-opacity:1;stroke-width:0.11232012" />
    <path
       id="path3744-9-1-6-6-22-5-3-7-7-7-2-2-6"
       sodipodi:type="arc"
       sodipodi:cx="125.14791"
       sodipodi:cy="8.0750008"
       sodipodi:rx="3"
       sodipodi:ry="3"
       sodipodi:start="0"
       sodipodi:end="6.2816843"
       sodipodi:open="true"
       d="m 128.14791,8.0750008 a 3,3 0 0 1 -2.99887,3.0000002 3,3 0 0 1 -3.00113,-2.9977487 3,3 0 0 1 2.99662,-3.0022496 3,3 0 0 1 3.00338,2.995495"
       style="fill:#f29700;fill-opacity:1;stroke-width:0.08424009" />
    <path
       id="path3744-9-1-6-6-22-5-3-7-7-7-2-2-0"
       sodipodi:type="arc"
       sodipodi:cx="111.38959"
       sodipodi:cy="5.958333"
       sodipodi:rx="3"
       sodipodi:ry="3"
       sodipodi:start="0"
       sodipodi:end="6.2816843"
       sodipodi:open="true"
       d="m 114.38959,5.958333 a 3,3 0 0 1 -2.99888,2.9999998 3,3 0 0 1 -3.00112,-2.9977483 3,3 0 0 1 2.99662,-3.0022496 3,3 0 0 1 3.00337,2.9954951"
       style="fill:#e43f03;fill-opacity:1;stroke-width:0.08424009" />
    <path
       id="path3744-9-1-6-6-22-5-3-7-7-7-2-2-03"
       sodipodi:type="arc"
       sodipodi:cx="99.351036"
       sodipodi:cy="6.0906248"
       sodipodi:rx="3"
       sodipodi:ry="3"
       sodipodi:start="0"
       sodipodi:end="6.2816843"
       sodipodi:open="true"
       d="M 102.35104,6.0906248 A 3,3 0 0 1 99.352162,9.0906246 3,3 0 0 1 96.351037,6.0928763 3,3 0 0 1 99.347659,3.0906267 3,3 0 0 1 102.35103,6.0861218"
       style="fill:#c10080;fill-opacity:1;stroke-width:0.08424009" />
    <path
       id="path3744-9-1-6-6-22-5-3-7-7-7-2-2-48"
       sodipodi:type="arc"
       sodipodi:cx="81.549995"
       sodipodi:cy="7.619792"
       sodipodi:rx="2"
       sodipodi:ry="2"
       sodipodi:start="0"
       sodipodi:end="6.2816843"
       sodipodi:open="true"
       d="M 83.549995,7.619792 A 2,2 0 0 1 81.550746,9.6197918 2,2 0 0 1 79.549996,7.621293 2,2 0 0 1 81.547744,5.6197933 2,2 0 0 1 83.549993,7.61679"
       style="fill:#910082;fill-opacity:1;stroke-width:0.05616006" />
    <path
       id="path3744-9-1-6-6-22-5-3-7-7-7-2-2-06"
       sodipodi:type="arc"
       sodipodi:cx="64.822914"
       sodipodi:cy="14.821875"
       sodipodi:rx="3"
       sodipodi:ry="3"
       sodipodi:start="0"
       sodipodi:end="6.2816843"
       sodipodi:open="true"
       d="m 67.822914,14.821875 a 3,3 0 0 1 -2.998874,2.999999 3,3 0 0 1 -3.001125,-2.997748 3,3 0 0 1 2.996622,-3.002249 3,3 0 0 1 3.003374,2.995495"
       style="fill:#910082;fill-opacity:1;stroke-width:0.08424009" />
    <path
       id="path3744-9-1-6-6-22-5-3-7-7-7-2-2-8"
       sodipodi:type="arc"
       sodipodi:cx="44.450001"
       sodipodi:cy="27.257292"
       sodipodi:rx="3"
       sodipodi:ry="3"
       sodipodi:start="0"
       sodipodi:end="6.2816843"
       sodipodi:open="true"
       d="m 47.450001,27.257292 a 3,3 0 0 1 -2.998874,3 3,3 0 0 1 -3.001125,-2.997749 3,3 0 0 1 2.996621,-3.002249 3,3 0 0 1 3.003374,2.995495"
       style="fill:#910082;fill-opacity:1;stroke-width:0.08424009" />
    <path
       id="path3744-9-1-6-6-22-5-3-7-7-7-2-2-46"
       sodipodi:type="arc"
       sodipodi:cx="24.473961"
       sodipodi:cy="47.497917"
       sodipodi:rx="3"
       sodipodi:ry="3"
       sodipodi:start="0"
       sodipodi:end="6.2816843"
       sodipodi:open="true"
       d="m 27.473961,47.497917 a 3,3 0 0 1 -2.998874,3 3,3 0 0 1 -3.001125,-2.997748 3,3 0 0 1 2.996622,-3.00225 3,3 0 0 1 3.003373,2.995495"
       style="fill:#910082;fill-opacity:1;stroke-width:0.08424009" />
    <path
       id="path3744-9-1-6-6-22-5-3-7-5"
       sodipodi:type="arc"
       sodipodi:cx="11.377078"
       sodipodi:cy="69.987503"
       sodipodi:rx="2"
       sodipodi:ry="2"
       sodipodi:start="0"
       sodipodi:end="6.2816843"
       sodipodi:open="true"
       d="m 13.377078,69.987503 a 2,2 0 0 1 -1.999249,2 2,2 0 0 1 -2.0007504,-1.998499 2,2 0 0 1 1.9977484,-2.0015 2,2 0 0 1 2.002249,1.996997"
       style="fill:#910082;fill-opacity:1;stroke-width:0.05616005" />
    <path
       id="path3744-9-1-6-6-22-5-3-7-0"
       sodipodi:type="arc"
       sodipodi:cx="5.1593752"
       sodipodi:cy="102.53125"
       sodipodi:rx="2"
       sodipodi:ry="2"
       sodipodi:start="0"
       sodipodi:end="6.2816843"
       sodipodi:open="true"
       d="m 7.1593752,102.53125 a 2,2 0 0 1 -1.9992495,2 2,2 0 0 1 -2.0007499,-1.9985 2,2 0 0 1 1.9977479,-2.0015 2,2 0 0 1 2.0022492,1.997"
       style="fill:#c10080;fill-opacity:1;stroke-width:0.05616005" />
    <path
       id="path3744-9-1-6-6-22-5-3-7-3"
       sodipodi:type="arc"
       sodipodi:cx="10.715625"
       sodipodi:cy="140.76355"
       sodipodi:rx="2"
       sodipodi:ry="2"
       sodipodi:start="0"
       sodipodi:end="6.2816843"
       sodipodi:open="true"
       d="m 12.715625,140.76355 a 2,2 0 0 1 -1.99925,2 2,2 0 0 1 -2.0007496,-1.9985 2,2 0 0 1 1.9977476,-2.0015 2,2 0 0 1 2.00225,1.997"
       style="fill:#e43f03;fill-opacity:1;stroke-width:0.05616005" />
    <path
       id="path3744-9-1-6-6-22-5-3-7-1"
       sodipodi:type="arc"
       sodipodi:cx="27.648958"
       sodipodi:cy="171.32292"
       sodipodi:rx="2"
       sodipodi:ry="2"
       sodipodi:start="0"
       sodipodi:end="6.2816843"
       sodipodi:open="true"
       d="m 29.648958,171.32292 a 2,2 0 0 1 -1.999249,2 2,2 0 0 1 -2.00075,-1.9985 2,2 0 0 1 1.997748,-2.0015 2,2 0 0 1 2.002249,1.997"
       style="fill:#f29700;fill-opacity:1;stroke-width:0.05616005" />
    <path
       id="path3744-9-1-5-1-9"
       sodipodi:type="arc"
       sodipodi:cx="23.283335"
       sodipodi:cy="144.60001"
       sodipodi:rx="6.5"
       sodipodi:ry="6.5"
       sodipodi:start="0"
       sodipodi:end="6.2816843"
       sodipodi:open="true"
       d="m 29.783335,144.60001 a 6.5,6.5 0 0 1 -6.497561,6.5 6.5,6.5 0 0 1 -6.502437,-6.49513 6.5,6.5 0 0 1 6.49268,-6.50487 6.5,6.5 0 0 1 6.50731,6.49024"
       style="fill:#f29700;fill-opacity:1;stroke-width:0.18252017" />
    <path
       id="path3744-9-1-5-1-0"
       sodipodi:type="arc"
       sodipodi:cx="16.536457"
       sodipodi:cy="101.7375"
       sodipodi:rx="6.5"
       sodipodi:ry="6.5"
       sodipodi:start="0"
       sodipodi:end="6.2816843"
       sodipodi:open="true"
       d="m 23.036457,101.7375 a 6.5,6.5 0 0 1 -6.497561,6.5 6.5,6.5 0 0 1 -6.502437,-6.49512 6.5,6.5 0 0 1 6.492681,-6.504873 6.5,6.5 0 0 1 6.50731,6.490243"
       style="fill:#e43f03;fill-opacity:1;stroke-width:0.18252017" />
    <path
       id="path3744-9-1-5-1-97"
       sodipodi:type="arc"
       sodipodi:cx="44.185417"
       sodipodi:cy="42.206261"
       sodipodi:rx="6.5"
       sodipodi:ry="6.5"
       sodipodi:start="0"
       sodipodi:end="6.2816843"
       sodipodi:open="true"
       d="m 50.685417,42.206261 a 6.5,6.5 0 0 1 -6.497561,6.499999 6.5,6.5 0 0 1 -6.502437,-6.495121 6.5,6.5 0 0 1 6.492681,-6.504874 6.5,6.5 0 0 1 6.50731,6.490239"
       style="fill:#c10080;fill-opacity:1;stroke-width:0.18252017" />
    <path
       id="path3744-9-1-5-1-8"
       sodipodi:type="arc"
       sodipodi:cx="118.66563"
       sodipodi:cy="29.63854"
       sodipodi:rx="6.5"
       sodipodi:ry="6.5"
       sodipodi:start="0"
       sodipodi:end="6.2816843"
       sodipodi:open="true"
       d="m 125.16563,29.63854 a 6.5,6.5 0 0 1 -6.49756,6.5 6.5,6.5 0 0 1 -6.50244,-6.495121 6.5,6.5 0 0 1 6.49268,-6.504875 6.5,6.5 0 0 1 6.50731,6.49024"
       style="fill:#f29700;fill-opacity:1;stroke-width:0.18252017" />
    <path
       id="path3744-9-1-5-1-7"
       sodipodi:type="arc"
       sodipodi:cx="24.267717"
       sodipodi:cy="60.00729"
       sodipodi:rx="5.5"
       sodipodi:ry="5.5"
       sodipodi:start="0"
       sodipodi:end="6.2816843"
       sodipodi:open="true"
       d="m 29.767717,60.00729 a 5.5,5.5 0 0 1 -5.497936,5.499999 5.5,5.5 0 0 1 -5.502062,-5.495871 5.5,5.5 0 0 1 5.493807,-5.504125 5.5,5.5 0 0 1 5.506185,5.491741"
       style="fill:#c10080;fill-opacity:1;stroke-width:0.15444013" />
    <path
       id="path3744-9-1-5-1-7-0"
       sodipodi:type="arc"
       sodipodi:cx="63.896873"
       sodipodi:cy="27.389584"
       sodipodi:rx="5.5"
       sodipodi:ry="5.5"
       sodipodi:start="0"
       sodipodi:end="6.2816843"
       sodipodi:open="true"
       d="m 69.396873,27.389584 a 5.5,5.5 0 0 1 -5.497936,5.499999 5.5,5.5 0 0 1 -5.502062,-5.495872 5.5,5.5 0 0 1 5.493807,-5.504124 5.5,5.5 0 0 1 5.506185,5.491741"
       style="fill:#c10080;fill-opacity:1;stroke-width:0.15444013" />
    <path
       id="path3744-9-1-5-1-8-1"
       sodipodi:type="arc"
       sodipodi:cx="90.826035"
       sodipodi:cy="28.109377"
       sodipodi:rx="7.5"
       sodipodi:ry="7.5"
       sodipodi:start="0"
       sodipodi:end="6.2816843"
       sodipodi:open="true"
       d="m 98.326035,28.109377 a 7.5,7.5 0 0 1 -7.497186,7.499999 7.5,7.5 0 0 1 -7.502812,-7.49437 7.5,7.5 0 0 1 7.491554,-7.505624 7.5,7.5 0 0 1 7.508435,7.488737"
       style="fill:#e43f03;fill-opacity:1;stroke-width:0.2106002" />
    <path
       id="path3744-9-1-5-1-8-3"
       sodipodi:type="arc"
       sodipodi:cx="27.987499"
       sodipodi:cy="125.74062"
       sodipodi:rx="7.5"
       sodipodi:ry="7.5"
       sodipodi:start="0"
       sodipodi:end="6.2816843"
       sodipodi:open="true"
       d="m 35.487499,125.74062 a 7.5,7.5 0 0 1 -7.497185,7.5 7.5,7.5 0 0 1 -7.502813,-7.49437 7.5,7.5 0 0 1 7.491555,-7.50562 7.5,7.5 0 0 1 7.508435,7.48874"
       style="fill:#f29700;fill-opacity:1;stroke-width:0.2106002" />
    <path
       id="path3744-9-1-5-1-8-7"
       sodipodi:type="arc"
       sodipodi:cx="42.819786"
       sodipodi:cy="103.1031"
       sodipodi:rx="9.5"
       sodipodi:ry="9.5"
       sodipodi:start="0"
       sodipodi:end="6.2816843"
       sodipodi:open="true"
       d="m 52.319786,103.1031 a 9.5,9.5 0 0 1 -9.496435,9.5 9.5,9.5 0 0 1 -9.503562,-9.49287 9.5,9.5 0 0 1 9.489302,-9.50712 9.5,9.5 0 0 1 9.510684,9.48573"
       style="fill:#f29700;fill-opacity:1;stroke-width:0.26676026" />
    <path
       id="path3744-9-1-5-1-8-7-4"
       sodipodi:type="arc"
       sodipodi:cx="104.56876"
       sodipodi:cy="43.867702"
       sodipodi:rx="8.5"
       sodipodi:ry="8.5"
       sodipodi:start="0"
       sodipodi:end="6.2816843"
       sodipodi:open="true"
       d="m 113.06876,43.867702 a 8.5,8.5 0 0 1 -8.49681,8.5 8.5,8.5 0 0 1 -8.503184,-8.49362 8.5,8.5 0 0 1 8.490424,-8.506374 8.5,8.5 0 0 1 8.50956,8.487236"
       style="fill:#f29700;fill-opacity:1;stroke-width:0.2386802" />
    <path
       id="path3744-9-1-5-1-8-7-4-4"
       sodipodi:type="arc"
       sodipodi:cx="48.81562"
       sodipodi:cy="60.727085"
       sodipodi:rx="8.5"
       sodipodi:ry="8.5"
       sodipodi:start="0"
       sodipodi:end="6.2816843"
       sodipodi:open="true"
       d="m 57.31562,60.727085 a 8.5,8.5 0 0 1 -8.49681,8.5 8.5,8.5 0 0 1 -8.503187,-8.493621 8.5,8.5 0 0 1 8.490429,-8.506374 8.5,8.5 0 0 1 8.509559,8.487237"
       style="fill:#e43f03;fill-opacity:1;stroke-width:0.2386802"
       inkscape:transform-center-x="-13.626042"
       inkscape:transform-center-y="-15.875" />
    <path
       id="path3744-9-1-5-1-8-7-4-7"
       sodipodi:type="arc"
       sodipodi:cx="28.839582"
       sodipodi:cy="79.380211"
       sodipodi:rx="8.5"
       sodipodi:ry="8.5"
       sodipodi:start="0"
       sodipodi:end="6.2816843"
       sodipodi:open="true"
       d="m 37.339582,79.380211 a 8.5,8.5 0 0 1 -8.49681,8.499999 8.5,8.5 0 0 1 -8.503187,-8.49362 8.5,8.5 0 0 1 8.490429,-8.506374 8.5,8.5 0 0 1 8.509559,8.487236"
       style="fill:#e43f03;fill-opacity:1;stroke-width:0.2386802" />
    <path
       id="path3744-9-1-5-1-8-7-4-9"
       sodipodi:type="arc"
       sodipodi:cx="70.511459"
       sodipodi:cy="42.73542"
       sodipodi:rx="8.5"
       sodipodi:ry="8.5"
       sodipodi:start="0"
       sodipodi:end="6.2816843"
       sodipodi:open="true"
       d="m 79.011459,42.73542 a 8.5,8.5 0 0 1 -8.49681,8.5 8.5,8.5 0 0 1 -8.503187,-8.49362 8.5,8.5 0 0 1 8.490428,-8.506374 8.5,8.5 0 0 1 8.50956,8.487236"
       style="fill:#e43f03;fill-opacity:1;stroke-width:0.2386802" />
    <path
       id="path3744-9-1-5-1-8-7-4-4-5"
       sodipodi:type="arc"
       sodipodi:cx="84.153122"
       sodipodi:cy="61.108334"
       sodipodi:rx="10.5"
       sodipodi:ry="10.5"
       sodipodi:start="0"
       sodipodi:end="6.2816843"
       sodipodi:open="true"
       d="M 94.653122,61.108334 A 10.5,10.5 0 0 1 84.157062,71.608333 10.5,10.5 0 0 1 73.653125,61.116214 10.5,10.5 0 0 1 84.141302,50.60834 10.5,10.5 0 0 1 94.65311,61.092573"
       style="fill:#f29700;fill-opacity:1;stroke-width:0.29484025"
       inkscape:transform-center-x="-16.83217"
       inkscape:transform-center-y="-19.610294" />
    <path
       id="path3744-9-1-5-1-8-7-4-4-5-9"
       sodipodi:type="arc"
       sodipodi:cx="62.309376"
       sodipodi:cy="80.835419"
       sodipodi:rx="10.5"
       sodipodi:ry="10.5"
       sodipodi:start="0"
       sodipodi:end="6.2816843"
       sodipodi:open="true"
       d="M 72.809376,80.835419 A 10.5,10.5 0 0 1 62.313316,91.335418 10.5,10.5 0 0 1 51.809379,80.843299 10.5,10.5 0 0 1 62.297555,70.335425 10.5,10.5 0 0 1 72.809364,80.819658"
       style="fill:#f29700;fill-opacity:1;stroke-width:0.29484025"
       inkscape:transform-center-x="-16.83217"
       inkscape:transform-center-y="-19.610294" />
  </g>
</svg>
